<?xml version="1.0" encoding="iso-8859-1"?>
<!-- Uploaded to: SVG Repo, www.svgrepo.com, Generator: SVG Repo Mixer Tools -->
<svg fill="#000000" height="800px" width="800px" version="1.1" id="Layer_1" xmlns="http://www.w3.org/2000/svg" xmlns:xlink="http://www.w3.org/1999/xlink" 
	 viewBox="0 0 512 512.001" xml:space="preserve">
<g>
	<g>
		<g>
			<path d="M105.094,307.2h129.347c16.345,0,29.642-13.298,29.642-29.642v-43.116c0-16.344-13.297-29.642-29.642-29.642H105.094
				c-16.344,0-29.642,13.298-29.642,29.642v43.116C75.452,293.902,88.75,307.2,105.094,307.2z M91.621,234.442
				c0-7.43,6.044-13.474,13.474-13.474h129.347c7.43,0,13.474,6.044,13.474,13.474v43.116c0,7.43-6.044,13.474-13.474,13.474
				H105.094c-7.43,0-13.474-6.044-13.474-13.474V234.442z"/>
			<path d="M509.633,476.642l-21.558-21.558c-3.157-3.156-8.275-3.156-11.433,0c-3.157,3.157-3.157,8.275,0,11.433l7.758,7.757H51.2
				c-7.43,0-13.474-6.044-13.474-13.474V27.601l7.758,7.758c3.156,3.156,8.275,3.156,11.432,0c3.157-3.157,3.157-8.275,0-11.433
				L35.358,2.367c-3.156-3.156-8.275-3.156-11.432,0L2.368,23.925c-3.157,3.157-3.157,8.275,0,11.433
				c3.156,3.156,8.275,3.156,11.432,0l7.758-7.758V460.8c0,16.344,13.298,29.642,29.642,29.643h433.198l-7.758,7.757
				c-3.157,3.157-3.157,8.275,0,11.433c1.579,1.578,3.649,2.367,5.717,2.367c2.068,0,4.138-0.789,5.717-2.367l21.558-21.558
				C512.79,484.917,512.79,479.799,509.633,476.642z"/>
			<path d="M105.094,177.853h377.263c16.344,0,29.642-13.298,29.642-29.642v-43.116c0-16.344-13.298-29.642-29.642-29.642H105.094
				c-16.344,0-29.642,13.298-29.642,29.642v43.116C75.452,164.555,88.75,177.853,105.094,177.853z M91.621,105.095
				c0-7.43,6.045-13.474,13.474-13.474h377.263c7.43,0,13.474,6.044,13.474,13.474v43.116c0,7.43-6.044,13.474-13.474,13.474
				H105.094c-7.43,0-13.474-6.044-13.474-13.474V105.095z"/>
			<path d="M105.094,436.548H353.01c16.344,0,29.642-13.298,29.642-29.642V363.79c0-16.344-13.298-29.642-29.642-29.642H105.094
				c-16.344,0-29.642,13.298-29.642,29.642v43.116C75.452,423.25,88.75,436.548,105.094,436.548z M91.621,363.79
				c0-7.43,6.044-13.474,13.474-13.474H353.01c7.43,0,13.474,6.044,13.474,13.474v43.116c0,7.43-6.044,13.474-13.474,13.474H105.094
				c-7.43,0-13.474-6.044-13.474-13.474V363.79z"/>
		</g>
	</g>
</g>
</svg>